<svg id="Layer_1" data-name="Layer 1" xmlns="http://www.w3.org/2000/svg" xmlns:xlink="http://www.w3.org/1999/xlink" viewBox="0 0 172.91 68.12"><defs><linearGradient id="linear-gradient" x1="86.46" y1="2.06" x2="86.46" y2="65.63" gradientUnits="userSpaceOnUse"><stop offset="0" stop-color="#fff" stop-opacity="0.3"/><stop offset="0.21" stop-color="#fff" stop-opacity="0.26"/><stop offset="0.55" stop-color="#fff" stop-opacity="0.16"/><stop offset="0.99" stop-color="#fff" stop-opacity="0"/><stop offset="0.99" stop-color="#fff" stop-opacity="0"/></linearGradient></defs><path d="M51.57,63.28a34.06,34.06,0,1,1,0-58.44c9.27,4.38,21.49,7,34.89,7s25.62-2.66,34.88-7a34.06,34.06,0,1,1,0,58.44c-9.27-4.37-21.49-7-34.88-7S60.84,58.91,51.57,63.28Z" fill="#a6d0dd"/><path d="M51.57,63.28a34.06,34.06,0,1,1,0-58.44c9.27,4.38,21.49,7,34.89,7s25.62-2.66,34.88-7a34.06,34.06,0,1,1,0,58.44c-9.27-4.37-21.49-7-34.88-7S60.84,58.91,51.57,63.28Z" fill="url(#linear-gradient)"/><path d="M34.06,14.61A19.46,19.46,0,1,0,53.52,34.06,19.48,19.48,0,0,0,34.06,14.61Zm0,36.56A17.11,17.11,0,1,1,51.17,34.06,17.13,17.13,0,0,1,34.06,51.17Z" fill="#004e66"/><path d="M42.66,34.06a8.6,8.6,0,1,1-8.6-8.6A8.6,8.6,0,0,1,42.66,34.06Z" fill="#004e66"/><path d="M34.06,23.82A10.25,10.25,0,1,0,44.3,34.06,10.23,10.23,0,0,0,34.06,23.82Zm0,18.84a8.6,8.6,0,1,1,8.6-8.6A8.6,8.6,0,0,1,34.06,42.66Z" fill="#004e66"/><path d="M129.13,17.21a19.46,19.46,0,1,0,26.57,7.12A19.47,19.47,0,0,0,129.13,17.21Zm18.28,31.67a17.11,17.11,0,1,1,6.26-23.37A17.13,17.13,0,0,1,147.41,48.88Z" fill="#004e66"/><path d="M146.3,29.76a8.6,8.6,0,1,1-11.75-3.15A8.6,8.6,0,0,1,146.3,29.76Z" fill="#004e66"/><path d="M133.73,25.19a10.24,10.24,0,1,0,14,3.75A10.24,10.24,0,0,0,133.73,25.19Zm9.43,16.32a8.6,8.6,0,1,1,3.14-11.75A8.6,8.6,0,0,1,143.16,41.51Z" fill="#004e66"/></svg>